<?xml version="1.0" standalone="no"?>
<!DOCTYPE svg PUBLIC "-//W3C//DTD SVG 20010904//EN"
 "http://www.w3.org/TR/2001/REC-SVG-20010904/DTD/svg10.dtd">
<svg version="1.0" xmlns="http://www.w3.org/2000/svg"
 width="500.000000pt" height="500.000000pt" viewBox="0 0 500.000000 500.000000"
 preserveAspectRatio="xMidYMid meet">

<g transform="translate(0.000000,500.000000) scale(0.100000,-0.100000)"
fill="#ffffff" stroke="none">
<path d="M2345 4324 c-391 -32 -784 -189 -1094 -439 -82 -66 -262 -250 -323
-330 -185 -245 -309 -518 -374 -830 -26 -120 -28 -148 -28 -370 -1 -263 9
-343 65 -545 221 -790 897 -1356 1719 -1442 140 -14 397 -4 535 21 843 154
1476 797 1617 1641 27 163 29 454 3 610 -60 378 -205 693 -455 992 -156 187
-397 377 -615 486 -166 82 -373 149 -564 182 -113 20 -377 33 -486 24z m490
-38 c315 -58 615 -190 870 -385 85 -64 256 -232 328 -321 301 -373 453 -833
434 -1315 -12 -291 -69 -517 -197 -780 -422 -867 -1398 -1300 -2324 -1030
-472 137 -900 474 -1148 905 -436 756 -326 1692 273 2334 141 151 352 309 549
410 169 87 443 171 642 196 111 13 467 5 573 -14z"/>
<path d="M2367 3364 c-65 -20 -128 -84 -156 -157 -29 -80 -8 -123 70 -142 27
-7 27 -6 31 63 3 56 9 76 31 105 79 104 220 52 234 -86 9 -90 0 -116 -78 -203
-75 -83 -109 -138 -109 -176 -1 -20 -86 -69 -686 -388 -733 -390 -739 -394
-785 -493 -25 -55 -25 -133 0 -173 11 -18 36 -45 57 -60 l37 -29 1523 -3 1523
-2 41 51 c22 28 47 75 56 105 22 76 2 146 -57 199 -36 32 -357 197 -664 340
-44 20 -208 97 -365 170 -307 143 -409 191 -508 236 -48 22 -62 34 -58 45 3 9
6 19 6 24 0 4 32 43 72 86 109 121 136 205 103 320 -23 82 -99 157 -174 173
-65 14 -84 13 -144 -5z m178 -25 c88 -42 135 -122 135 -233 0 -75 -24 -124
-110 -219 -67 -74 -88 -112 -77 -140 2 -7 72 -44 153 -82 82 -37 209 -97 282
-132 74 -35 135 -63 137 -63 6 0 611 -288 786 -374 97 -47 195 -100 217 -116
102 -74 107 -204 12 -308 l-29 -32 -1520 2 c-1517 3 -1520 3 -1547 24 -73 54
-90 122 -52 206 43 94 74 118 281 229 106 56 219 116 252 134 33 18 130 70
215 115 85 45 187 99 225 120 127 68 369 197 432 231 55 29 64 37 69 68 7 43
36 88 104 161 74 80 85 103 84 185 0 79 -16 118 -64 159 -26 21 -42 26 -85 26
-49 0 -58 -4 -93 -37 -41 -39 -62 -90 -62 -150 0 -37 0 -37 -33 -22 -41 18
-53 52 -37 100 18 53 84 127 135 150 55 25 134 24 190 -2z"/>
<path d="M2310 2546 c-227 -121 -349 -186 -490 -261 -74 -39 -182 -97 -240
-128 -526 -280 -514 -273 -545 -317 -29 -41 -29 -42 -11 -56 17 -12 239 -14
1507 -14 l1487 0 17 26 c33 50 16 64 -237 188 -206 100 -306 149 -668 318 -47
22 -141 66 -210 98 -69 32 -165 77 -214 100 -88 41 -175 81 -231 105 -29 13
-36 10 -165 -59z m237 10 c54 -24 152 -70 218 -101 66 -31 167 -79 225 -105
58 -26 152 -70 210 -98 58 -27 170 -80 250 -117 268 -127 555 -272 569 -289
12 -14 12 -21 1 -41 l-13 -25 -1477 0 c-1207 0 -1480 2 -1488 13 -9 10 -6 21
11 45 17 24 94 70 317 189 162 86 322 171 355 189 180 97 720 384 722 384 2 0
47 -20 100 -44z"/>
</g>
</svg>
